<mxfile host="Electron" modified="2023-07-03T12:11:00.246Z" agent="Mozilla/5.0 (Windows NT 10.0; Win64; x64) AppleWebKit/537.36 (KHTML, like Gecko) draw.io/21.2.8 Chrome/112.0.5615.165 Electron/24.2.0 Safari/537.36" etag="RcKi8Xsn7q20mOsItI2y" version="21.2.8" type="device">
  <diagram name="Page-1" id="wD7GblB3hRUH3y1r6OsW">
    <mxGraphModel dx="1036" dy="654" grid="1" gridSize="10" guides="1" tooltips="1" connect="1" arrows="1" fold="1" page="1" pageScale="1" pageWidth="850" pageHeight="1100" math="0" shadow="0">
      <root>
        <mxCell id="0" />
        <mxCell id="1" parent="0" />
        <mxCell id="RR-T-IxrJwedIr2HiU0a-2" value="" style="rounded=1;whiteSpace=wrap;html=1;" parent="1" vertex="1">
          <mxGeometry x="268" y="80" width="120" height="60" as="geometry" />
        </mxCell>
        <mxCell id="RR-T-IxrJwedIr2HiU0a-3" value="" style="rounded=0;whiteSpace=wrap;html=1;" parent="1" vertex="1">
          <mxGeometry x="268" y="200" width="120" height="60" as="geometry" />
        </mxCell>
        <mxCell id="RR-T-IxrJwedIr2HiU0a-4" value="" style="rhombus;whiteSpace=wrap;html=1;" parent="1" vertex="1">
          <mxGeometry x="288" y="320" width="80" height="80" as="geometry" />
        </mxCell>
        <mxCell id="RR-T-IxrJwedIr2HiU0a-5" value="" style="shape=parallelogram;perimeter=parallelogramPerimeter;whiteSpace=wrap;html=1;fixedSize=1;" parent="1" vertex="1">
          <mxGeometry x="260" y="450" width="140" height="60" as="geometry" />
        </mxCell>
        <mxCell id="RR-T-IxrJwedIr2HiU0a-6" value="" style="rounded=0;whiteSpace=wrap;html=1;" parent="1" vertex="1">
          <mxGeometry x="268" y="580" width="120" height="60" as="geometry" />
        </mxCell>
        <mxCell id="RR-T-IxrJwedIr2HiU0a-7" value="" style="shape=parallelogram;perimeter=parallelogramPerimeter;whiteSpace=wrap;html=1;fixedSize=1;" parent="1" vertex="1">
          <mxGeometry x="268" y="700" width="120" height="60" as="geometry" />
        </mxCell>
        <mxCell id="RR-T-IxrJwedIr2HiU0a-8" value="" style="rounded=1;whiteSpace=wrap;html=1;" parent="1" vertex="1">
          <mxGeometry x="268" y="820" width="120" height="60" as="geometry" />
        </mxCell>
        <mxCell id="RR-T-IxrJwedIr2HiU0a-9" value="" style="rounded=0;whiteSpace=wrap;html=1;" parent="1" vertex="1">
          <mxGeometry x="600" y="440" width="120" height="60" as="geometry" />
        </mxCell>
        <mxCell id="RR-T-IxrJwedIr2HiU0a-10" value="" style="rounded=0;whiteSpace=wrap;html=1;" parent="1" vertex="1">
          <mxGeometry x="600" y="530" width="120" height="60" as="geometry" />
        </mxCell>
        <mxCell id="RR-T-IxrJwedIr2HiU0a-11" value="" style="rounded=0;whiteSpace=wrap;html=1;" parent="1" vertex="1">
          <mxGeometry x="600" y="620" width="120" height="60" as="geometry" />
        </mxCell>
        <mxCell id="RR-T-IxrJwedIr2HiU0a-12" value="" style="endArrow=classic;html=1;rounded=0;exitX=0.5;exitY=1;exitDx=0;exitDy=0;" parent="1" source="RR-T-IxrJwedIr2HiU0a-2" target="RR-T-IxrJwedIr2HiU0a-3" edge="1">
          <mxGeometry width="50" height="50" relative="1" as="geometry">
            <mxPoint x="260" y="180" as="sourcePoint" />
            <mxPoint x="310" y="130" as="targetPoint" />
          </mxGeometry>
        </mxCell>
        <mxCell id="RR-T-IxrJwedIr2HiU0a-13" value="" style="endArrow=classic;html=1;rounded=0;exitX=0.5;exitY=1;exitDx=0;exitDy=0;entryX=0.5;entryY=0;entryDx=0;entryDy=0;" parent="1" source="RR-T-IxrJwedIr2HiU0a-3" target="RR-T-IxrJwedIr2HiU0a-4" edge="1">
          <mxGeometry width="50" height="50" relative="1" as="geometry">
            <mxPoint x="270" y="190" as="sourcePoint" />
            <mxPoint x="320" y="140" as="targetPoint" />
          </mxGeometry>
        </mxCell>
        <mxCell id="RR-T-IxrJwedIr2HiU0a-14" value="" style="endArrow=classic;html=1;rounded=0;exitX=1;exitY=0.5;exitDx=0;exitDy=0;" parent="1" source="RR-T-IxrJwedIr2HiU0a-4" edge="1">
          <mxGeometry width="50" height="50" relative="1" as="geometry">
            <mxPoint x="280" y="200" as="sourcePoint" />
            <mxPoint x="330" y="290" as="targetPoint" />
            <Array as="points">
              <mxPoint x="480" y="360" />
              <mxPoint x="480" y="290" />
            </Array>
          </mxGeometry>
        </mxCell>
        <mxCell id="RR-T-IxrJwedIr2HiU0a-15" value="" style="endArrow=classic;html=1;rounded=0;exitX=0.5;exitY=1;exitDx=0;exitDy=0;entryX=0.5;entryY=0;entryDx=0;entryDy=0;" parent="1" source="RR-T-IxrJwedIr2HiU0a-4" target="RR-T-IxrJwedIr2HiU0a-5" edge="1">
          <mxGeometry width="50" height="50" relative="1" as="geometry">
            <mxPoint x="290" y="210" as="sourcePoint" />
            <mxPoint x="340" y="160" as="targetPoint" />
          </mxGeometry>
        </mxCell>
        <mxCell id="RR-T-IxrJwedIr2HiU0a-16" value="" style="endArrow=classic;html=1;rounded=0;exitX=0.5;exitY=1;exitDx=0;exitDy=0;entryX=0.5;entryY=0;entryDx=0;entryDy=0;" parent="1" source="RR-T-IxrJwedIr2HiU0a-5" target="RR-T-IxrJwedIr2HiU0a-6" edge="1">
          <mxGeometry width="50" height="50" relative="1" as="geometry">
            <mxPoint x="300" y="220" as="sourcePoint" />
            <mxPoint x="350" y="170" as="targetPoint" />
          </mxGeometry>
        </mxCell>
        <mxCell id="RR-T-IxrJwedIr2HiU0a-17" value="" style="endArrow=classic;html=1;rounded=0;exitX=0.5;exitY=1;exitDx=0;exitDy=0;entryX=0.5;entryY=0;entryDx=0;entryDy=0;" parent="1" source="RR-T-IxrJwedIr2HiU0a-6" target="RR-T-IxrJwedIr2HiU0a-7" edge="1">
          <mxGeometry width="50" height="50" relative="1" as="geometry">
            <mxPoint x="310" y="230" as="sourcePoint" />
            <mxPoint x="360" y="180" as="targetPoint" />
          </mxGeometry>
        </mxCell>
        <mxCell id="RR-T-IxrJwedIr2HiU0a-18" value="" style="endArrow=classic;html=1;rounded=0;exitX=0.5;exitY=1;exitDx=0;exitDy=0;entryX=0.5;entryY=0;entryDx=0;entryDy=0;" parent="1" source="RR-T-IxrJwedIr2HiU0a-7" target="RR-T-IxrJwedIr2HiU0a-8" edge="1">
          <mxGeometry width="50" height="50" relative="1" as="geometry">
            <mxPoint x="320" y="240" as="sourcePoint" />
            <mxPoint x="370" y="190" as="targetPoint" />
          </mxGeometry>
        </mxCell>
        <mxCell id="RR-T-IxrJwedIr2HiU0a-19" value="" style="endArrow=classic;html=1;rounded=0;exitX=1;exitY=0.25;exitDx=0;exitDy=0;entryX=0;entryY=0.5;entryDx=0;entryDy=0;" parent="1" source="RR-T-IxrJwedIr2HiU0a-6" target="RR-T-IxrJwedIr2HiU0a-9" edge="1">
          <mxGeometry width="50" height="50" relative="1" as="geometry">
            <mxPoint x="330" y="250" as="sourcePoint" />
            <mxPoint x="380" y="200" as="targetPoint" />
            <Array as="points">
              <mxPoint x="440" y="595" />
              <mxPoint x="440" y="470" />
              <mxPoint x="520" y="470" />
            </Array>
          </mxGeometry>
        </mxCell>
        <mxCell id="RR-T-IxrJwedIr2HiU0a-20" value="" style="endArrow=classic;html=1;rounded=0;exitX=1;exitY=0.5;exitDx=0;exitDy=0;entryX=0;entryY=0.5;entryDx=0;entryDy=0;" parent="1" source="RR-T-IxrJwedIr2HiU0a-6" target="RR-T-IxrJwedIr2HiU0a-10" edge="1">
          <mxGeometry width="50" height="50" relative="1" as="geometry">
            <mxPoint x="340" y="260" as="sourcePoint" />
            <mxPoint x="390" y="210" as="targetPoint" />
            <Array as="points">
              <mxPoint x="470" y="610" />
              <mxPoint x="470" y="560" />
            </Array>
          </mxGeometry>
        </mxCell>
        <mxCell id="RR-T-IxrJwedIr2HiU0a-21" value="" style="endArrow=classic;html=1;rounded=0;exitX=1;exitY=0.75;exitDx=0;exitDy=0;entryX=0;entryY=0.5;entryDx=0;entryDy=0;" parent="1" source="RR-T-IxrJwedIr2HiU0a-6" target="RR-T-IxrJwedIr2HiU0a-11" edge="1">
          <mxGeometry width="50" height="50" relative="1" as="geometry">
            <mxPoint x="350" y="270" as="sourcePoint" />
            <mxPoint x="400" y="220" as="targetPoint" />
            <Array as="points">
              <mxPoint x="500" y="625" />
              <mxPoint x="500" y="650" />
            </Array>
          </mxGeometry>
        </mxCell>
        <mxCell id="RR-T-IxrJwedIr2HiU0a-22" value="Start" style="text;html=1;strokeColor=none;fillColor=none;align=center;verticalAlign=middle;whiteSpace=wrap;rounded=0;" parent="1" vertex="1">
          <mxGeometry x="298" y="95" width="60" height="30" as="geometry" />
        </mxCell>
        <mxCell id="RR-T-IxrJwedIr2HiU0a-23" value="User" style="text;html=1;strokeColor=none;fillColor=none;align=center;verticalAlign=middle;whiteSpace=wrap;rounded=0;" parent="1" vertex="1">
          <mxGeometry x="298" y="215" width="60" height="30" as="geometry" />
        </mxCell>
        <mxCell id="RR-T-IxrJwedIr2HiU0a-24" value="Login" style="text;html=1;strokeColor=none;fillColor=none;align=center;verticalAlign=middle;whiteSpace=wrap;rounded=0;" parent="1" vertex="1">
          <mxGeometry x="298" y="345" width="60" height="30" as="geometry" />
        </mxCell>
        <mxCell id="RR-T-IxrJwedIr2HiU0a-25" value="Yes" style="text;html=1;strokeColor=none;fillColor=none;align=center;verticalAlign=middle;whiteSpace=wrap;rounded=0;" parent="1" vertex="1">
          <mxGeometry x="320" y="400" width="60" height="30" as="geometry" />
        </mxCell>
        <mxCell id="KllJypc3ccni5csE-M5--1" value="AI Data Process" style="text;html=1;strokeColor=none;fillColor=none;align=center;verticalAlign=middle;whiteSpace=wrap;rounded=0;" parent="1" vertex="1">
          <mxGeometry x="283" y="595" width="90" height="30" as="geometry" />
        </mxCell>
        <mxCell id="KllJypc3ccni5csE-M5--2" value="No" style="text;html=1;strokeColor=none;fillColor=none;align=center;verticalAlign=middle;whiteSpace=wrap;rounded=0;" parent="1" vertex="1">
          <mxGeometry x="373" y="330" width="60" height="30" as="geometry" />
        </mxCell>
        <mxCell id="KllJypc3ccni5csE-M5--3" value="End" style="text;html=1;strokeColor=none;fillColor=none;align=center;verticalAlign=middle;whiteSpace=wrap;rounded=0;" parent="1" vertex="1">
          <mxGeometry x="298" y="835" width="60" height="30" as="geometry" />
        </mxCell>
        <mxCell id="KllJypc3ccni5csE-M5--4" value="Output&amp;nbsp;&amp;nbsp;" style="text;html=1;strokeColor=none;fillColor=none;align=center;verticalAlign=middle;whiteSpace=wrap;rounded=0;" parent="1" vertex="1">
          <mxGeometry x="298" y="715" width="60" height="30" as="geometry" />
        </mxCell>
        <mxCell id="KllJypc3ccni5csE-M5--5" value="&lt;font style=&quot;font-size: 10px;&quot;&gt;Input as temperature, humidity and oxygen level&lt;/font&gt;" style="text;html=1;strokeColor=none;fillColor=none;align=center;verticalAlign=middle;whiteSpace=wrap;rounded=0;" parent="1" vertex="1">
          <mxGeometry x="275.5" y="467.5" width="109" height="25" as="geometry" />
        </mxCell>
        <mxCell id="KllJypc3ccni5csE-M5--8" value="Trains with Testing Dataset" style="text;html=1;strokeColor=none;fillColor=none;align=center;verticalAlign=middle;whiteSpace=wrap;rounded=0;" parent="1" vertex="1">
          <mxGeometry x="615" y="455" width="90" height="30" as="geometry" />
        </mxCell>
        <mxCell id="KllJypc3ccni5csE-M5--9" value="Trains with AI Classifiers" style="text;html=1;strokeColor=none;fillColor=none;align=center;verticalAlign=middle;whiteSpace=wrap;rounded=0;" parent="1" vertex="1">
          <mxGeometry x="615" y="545" width="90" height="30" as="geometry" />
        </mxCell>
        <mxCell id="KllJypc3ccni5csE-M5--10" value="Classifiers LR, RF accuracy" style="text;html=1;strokeColor=none;fillColor=none;align=center;verticalAlign=middle;whiteSpace=wrap;rounded=0;" parent="1" vertex="1">
          <mxGeometry x="615" y="635" width="90" height="30" as="geometry" />
        </mxCell>
      </root>
    </mxGraphModel>
  </diagram>
</mxfile>
